<svg width="201" height="81" viewBox="0 0 201 81" fill="none" xmlns="http://www.w3.org/2000/svg">
<rect x="0.943359" y="1.53955" width="198.5" height="78.5" rx="11.25" stroke="#EEDCDC" stroke-width="1.5"/>
<path d="M88.4134 38.0296C88.4134 38.7362 88.2467 39.4029 87.9134 40.0296C87.58 40.6562 87.0467 41.1696 86.3134 41.5696C85.58 41.9562 84.64 42.1496 83.4934 42.1496H80.9734V47.7896H78.6934V33.8895H83.4934C84.56 33.8895 85.46 34.0762 86.1934 34.4495C86.94 34.8095 87.4934 35.3029 87.8534 35.9295C88.2267 36.5562 88.4134 37.2562 88.4134 38.0296ZM83.4934 40.2896C84.36 40.2896 85.0067 40.0962 85.4334 39.7096C85.86 39.3096 86.0734 38.7496 86.0734 38.0296C86.0734 36.5095 85.2134 35.7495 83.4934 35.7495H80.9734V40.2896H83.4934ZM92.8679 32.9896V47.7896H90.5879V32.9896H92.8679ZM95.1013 42.2296C95.1013 41.1229 95.328 40.1429 95.7813 39.2896C96.248 38.4362 96.8747 37.7762 97.6613 37.3095C98.4613 36.8296 99.3413 36.5896 100.301 36.5896C101.168 36.5896 101.921 36.7629 102.561 37.1095C103.215 37.4429 103.735 37.8629 104.121 38.3696V36.7696H106.421V47.7896H104.121V46.1496C103.735 46.6696 103.208 47.1029 102.541 47.4496C101.875 47.7962 101.115 47.9696 100.261 47.9696C99.3147 47.9696 98.448 47.7296 97.6613 47.2496C96.8747 46.7562 96.248 46.0762 95.7813 45.2096C95.328 44.3296 95.1013 43.3362 95.1013 42.2296ZM104.121 42.2696C104.121 41.5096 103.961 40.8496 103.641 40.2896C103.335 39.7296 102.928 39.3029 102.421 39.0096C101.915 38.7162 101.368 38.5696 100.781 38.5696C100.195 38.5696 99.648 38.7162 99.1413 39.0096C98.6347 39.2896 98.2213 39.7096 97.9013 40.2696C97.5947 40.8162 97.4413 41.4696 97.4413 42.2296C97.4413 42.9896 97.5947 43.6562 97.9013 44.2296C98.2213 44.8029 98.6347 45.2429 99.1413 45.5496C99.6613 45.8429 100.208 45.9896 100.781 45.9896C101.368 45.9896 101.915 45.8429 102.421 45.5496C102.928 45.2562 103.335 44.8296 103.641 44.2696C103.961 43.6962 104.121 43.0296 104.121 42.2696ZM119.336 36.7696L112.576 52.9696H110.216L112.456 47.6096L108.116 36.7696H110.656L113.756 45.1696L116.976 36.7696H119.336ZM130.832 47.9296C129.899 47.9296 129.059 47.7696 128.312 47.4496C127.565 47.1162 126.979 46.6496 126.552 46.0496C126.125 45.4496 125.912 44.7496 125.912 43.9496H128.352C128.405 44.5496 128.639 45.0429 129.052 45.4296C129.479 45.8162 130.072 46.0096 130.832 46.0096C131.619 46.0096 132.232 45.8229 132.672 45.4496C133.112 45.0629 133.332 44.5696 133.332 43.9696C133.332 43.5029 133.192 43.1229 132.912 42.8296C132.645 42.5362 132.305 42.3096 131.892 42.1496C131.492 41.9896 130.932 41.8162 130.212 41.6296C129.305 41.3896 128.565 41.1496 127.992 40.9096C127.432 40.6562 126.952 40.2696 126.552 39.7496C126.152 39.2296 125.952 38.5362 125.952 37.6695C125.952 36.8695 126.152 36.1696 126.552 35.5696C126.952 34.9696 127.512 34.5096 128.232 34.1896C128.952 33.8695 129.785 33.7095 130.732 33.7095C132.079 33.7095 133.179 34.0495 134.032 34.7295C134.899 35.3962 135.379 36.3162 135.472 37.4895H132.952C132.912 36.9829 132.672 36.5496 132.232 36.1895C131.792 35.8295 131.212 35.6495 130.492 35.6495C129.839 35.6495 129.305 35.8162 128.892 36.1496C128.479 36.4829 128.272 36.9629 128.272 37.5895C128.272 38.0162 128.399 38.3696 128.652 38.6496C128.919 38.9162 129.252 39.1296 129.652 39.2896C130.052 39.4496 130.599 39.6229 131.292 39.8096C132.212 40.0629 132.959 40.3162 133.532 40.5696C134.119 40.8229 134.612 41.2162 135.012 41.7496C135.425 42.2696 135.632 42.9696 135.632 43.8496C135.632 44.5562 135.439 45.2229 135.052 45.8496C134.679 46.4762 134.125 46.9829 133.392 47.3696C132.672 47.7429 131.819 47.9296 130.832 47.9296ZM140.982 38.6296V44.7296C140.982 45.1429 141.076 45.4429 141.262 45.6296C141.462 45.8029 141.796 45.8896 142.262 45.8896H143.662V47.7896H141.862C140.836 47.7896 140.049 47.5496 139.502 47.0696C138.956 46.5896 138.682 45.8096 138.682 44.7296V38.6296H137.382V36.7696H138.682V34.0296H140.982V36.7696H143.662V38.6296H140.982ZM150.544 47.9696C149.504 47.9696 148.564 47.7362 147.724 47.2696C146.884 46.7896 146.224 46.1229 145.744 45.2696C145.264 44.4029 145.024 43.4029 145.024 42.2696C145.024 41.1496 145.27 40.1562 145.764 39.2896C146.257 38.4229 146.93 37.7562 147.784 37.2896C148.637 36.8229 149.59 36.5896 150.644 36.5896C151.697 36.5896 152.65 36.8229 153.504 37.2896C154.357 37.7562 155.03 38.4229 155.524 39.2896C156.017 40.1562 156.264 41.1496 156.264 42.2696C156.264 43.3896 156.01 44.3829 155.504 45.2496C154.997 46.1162 154.304 46.7896 153.424 47.2696C152.557 47.7362 151.597 47.9696 150.544 47.9696ZM150.544 45.9896C151.13 45.9896 151.677 45.8496 152.184 45.5696C152.704 45.2896 153.124 44.8696 153.444 44.3096C153.764 43.7496 153.924 43.0696 153.924 42.2696C153.924 41.4696 153.77 40.7962 153.464 40.2496C153.157 39.6896 152.75 39.2696 152.244 38.9896C151.737 38.7096 151.19 38.5696 150.604 38.5696C150.017 38.5696 149.47 38.7096 148.964 38.9896C148.47 39.2696 148.077 39.6896 147.784 40.2496C147.49 40.7962 147.344 41.4696 147.344 42.2696C147.344 43.4562 147.644 44.3762 148.244 45.0296C148.857 45.6696 149.624 45.9896 150.544 45.9896ZM160.798 38.3696C161.131 37.8096 161.571 37.3762 162.118 37.0696C162.678 36.7496 163.338 36.5896 164.098 36.5896V38.9496H163.518C162.624 38.9496 161.944 39.1762 161.478 39.6296C161.024 40.0829 160.798 40.8696 160.798 41.9896V47.7896H158.518V36.7696H160.798V38.3696ZM176.293 42.0096C176.293 42.4229 176.267 42.7962 176.213 43.1296H167.793C167.86 44.0096 168.187 44.7162 168.773 45.2496C169.36 45.7829 170.08 46.0496 170.933 46.0496C172.16 46.0496 173.027 45.5362 173.533 44.5096H175.993C175.66 45.5229 175.053 46.3562 174.173 47.0096C173.307 47.6496 172.227 47.9696 170.933 47.9696C169.88 47.9696 168.933 47.7362 168.093 47.2696C167.267 46.7896 166.613 46.1229 166.133 45.2696C165.667 44.4029 165.433 43.4029 165.433 42.2696C165.433 41.1362 165.66 40.1429 166.113 39.2896C166.58 38.4229 167.227 37.7562 168.053 37.2896C168.893 36.8229 169.853 36.5896 170.933 36.5896C171.973 36.5896 172.9 36.8162 173.713 37.2696C174.527 37.7229 175.16 38.3629 175.613 39.1896C176.067 40.0029 176.293 40.9429 176.293 42.0096ZM173.913 41.2896C173.9 40.4496 173.6 39.7762 173.013 39.2696C172.427 38.7629 171.7 38.5096 170.833 38.5096C170.047 38.5096 169.373 38.7629 168.813 39.2696C168.253 39.7629 167.92 40.4362 167.813 41.2896H173.913Z" fill="#2E2E2E"/>
<path fill-rule="evenodd" clip-rule="evenodd" d="M55.2533 37.236C57.5802 38.8241 57.5802 42.2558 55.2533 43.8438L29.2546 61.5874C26.5995 63.3994 22.9998 61.498 22.9998 58.2835V22.7964C22.9998 19.5819 26.5995 17.6805 29.2546 19.4925L55.2533 37.236Z" fill="#2E2E2E"/>
<path d="M35.0836 54.492L55.036 40.2079L47.4485 34.9546L35.0836 54.492Z" fill="#FBF9FF"/>
<path d="M44.9193 33.2034L35.3646 26.5881L41.8281 37.8826L44.9193 33.2034Z" fill="#FBF9FF"/>
</svg>
