<svg width="209" height="81" viewBox="0 0 209 81" fill="none" xmlns="http://www.w3.org/2000/svg">
<rect x="0.943359" y="1.53955" width="206.5" height="78.5" rx="11.25" stroke="#EEDCDC" stroke-width="1.5"/>
<rect x="23.1934" y="19.7896" width="43" height="43" rx="10" fill="#2E2E2E"/>
<path d="M50.885 41.4158C50.8741 39.6125 51.714 38.2534 53.4102 37.2513C52.4615 35.9292 51.0263 35.2021 49.1345 35.0619C47.3432 34.9244 45.3834 36.0773 44.6658 36.0773C43.9074 36.0773 42.1732 35.1095 40.8087 35.1095C37.9927 35.1518 35 37.2936 35 41.6511C35 42.9388 35.2419 44.2688 35.7258 45.6385C36.3727 47.4417 38.7049 51.8601 41.1376 51.7887C42.4097 51.7596 43.3094 50.9108 44.9648 50.9108C46.5712 50.9108 47.403 51.7887 48.8219 51.7887C51.2764 51.7543 53.3857 47.7379 54 45.9293C50.7083 44.4195 50.885 41.5083 50.885 41.4158ZM48.0282 33.3512C49.4063 31.7594 49.2813 30.3104 49.2405 29.7896C48.0227 29.8583 46.6147 30.596 45.8129 31.5029C44.9295 32.476 44.4103 33.6791 44.5217 35.0355C45.8373 35.1333 47.0388 34.4749 48.0282 33.3512Z" fill="white"/>
<path d="M96.0734 44.9496H90.2534L89.2534 47.7896H86.8734L91.8534 33.8695H94.4934L99.4734 47.7896H97.0734L96.0734 44.9496ZM95.4334 43.0896L93.1734 36.6296L90.8934 43.0896H95.4334ZM103.919 38.3896C104.305 37.8829 104.832 37.4562 105.499 37.1095C106.165 36.7629 106.919 36.5896 107.759 36.5896C108.719 36.5896 109.592 36.8296 110.379 37.3095C111.179 37.7762 111.805 38.4362 112.259 39.2896C112.712 40.1429 112.939 41.1229 112.939 42.2296C112.939 43.3362 112.712 44.3296 112.259 45.2096C111.805 46.0762 111.179 46.7562 110.379 47.2496C109.592 47.7296 108.719 47.9696 107.759 47.9696C106.919 47.9696 106.172 47.8029 105.519 47.4696C104.865 47.1229 104.332 46.6962 103.919 46.1896V53.0296H101.639V36.7696H103.919V38.3896ZM110.619 42.2296C110.619 41.4696 110.459 40.8162 110.139 40.2696C109.832 39.7096 109.419 39.2896 108.899 39.0096C108.392 38.7162 107.845 38.5696 107.259 38.5696C106.685 38.5696 106.139 38.7162 105.619 39.0096C105.112 39.3029 104.699 39.7296 104.379 40.2896C104.072 40.8496 103.919 41.5096 103.919 42.2696C103.919 43.0296 104.072 43.6962 104.379 44.2696C104.699 44.8296 105.112 45.2562 105.619 45.5496C106.139 45.8429 106.685 45.9896 107.259 45.9896C107.845 45.9896 108.392 45.8429 108.899 45.5496C109.419 45.2429 109.832 44.8029 110.139 44.2296C110.459 43.6562 110.619 42.9896 110.619 42.2296ZM117.473 38.3896C117.86 37.8829 118.387 37.4562 119.053 37.1095C119.72 36.7629 120.473 36.5896 121.313 36.5896C122.273 36.5896 123.147 36.8296 123.933 37.3095C124.733 37.7762 125.36 38.4362 125.813 39.2896C126.267 40.1429 126.493 41.1229 126.493 42.2296C126.493 43.3362 126.267 44.3296 125.813 45.2096C125.36 46.0762 124.733 46.7562 123.933 47.2496C123.147 47.7296 122.273 47.9696 121.313 47.9696C120.473 47.9696 119.727 47.8029 119.073 47.4696C118.42 47.1229 117.887 46.6962 117.473 46.1896V53.0296H115.193V36.7696H117.473V38.3896ZM124.173 42.2296C124.173 41.4696 124.013 40.8162 123.693 40.2696C123.387 39.7096 122.973 39.2896 122.453 39.0096C121.947 38.7162 121.4 38.5696 120.813 38.5696C120.24 38.5696 119.693 38.7162 119.173 39.0096C118.667 39.3029 118.253 39.7296 117.933 40.2896C117.627 40.8496 117.473 41.5096 117.473 42.2696C117.473 43.0296 117.627 43.6962 117.933 44.2696C118.253 44.8296 118.667 45.2562 119.173 45.5496C119.693 45.8429 120.24 45.9896 120.813 45.9896C121.4 45.9896 121.947 45.8429 122.453 45.5496C122.973 45.2429 123.387 44.8029 123.693 44.2296C124.013 43.6562 124.173 42.9896 124.173 42.2296ZM138.523 47.9296C137.59 47.9296 136.75 47.7696 136.003 47.4496C135.257 47.1162 134.67 46.6496 134.243 46.0496C133.817 45.4496 133.603 44.7496 133.603 43.9496H136.043C136.097 44.5496 136.33 45.0429 136.743 45.4296C137.17 45.8162 137.763 46.0096 138.523 46.0096C139.31 46.0096 139.923 45.8229 140.363 45.4496C140.803 45.0629 141.023 44.5696 141.023 43.9696C141.023 43.5029 140.883 43.1229 140.603 42.8296C140.337 42.5362 139.997 42.3096 139.583 42.1496C139.183 41.9896 138.623 41.8162 137.903 41.6296C136.997 41.3896 136.257 41.1496 135.683 40.9096C135.123 40.6562 134.643 40.2696 134.243 39.7496C133.843 39.2296 133.643 38.5362 133.643 37.6695C133.643 36.8695 133.843 36.1696 134.243 35.5696C134.643 34.9696 135.203 34.5096 135.923 34.1896C136.643 33.8695 137.477 33.7095 138.423 33.7095C139.77 33.7095 140.87 34.0495 141.723 34.7295C142.59 35.3962 143.07 36.3162 143.163 37.4895H140.643C140.603 36.9829 140.363 36.5496 139.923 36.1895C139.483 35.8295 138.903 35.6495 138.183 35.6495C137.53 35.6495 136.997 35.8162 136.583 36.1496C136.17 36.4829 135.963 36.9629 135.963 37.5895C135.963 38.0162 136.09 38.3696 136.343 38.6496C136.61 38.9162 136.943 39.1296 137.343 39.2896C137.743 39.4496 138.29 39.6229 138.983 39.8096C139.903 40.0629 140.65 40.3162 141.223 40.5696C141.81 40.8229 142.303 41.2162 142.703 41.7496C143.117 42.2696 143.323 42.9696 143.323 43.8496C143.323 44.5562 143.13 45.2229 142.743 45.8496C142.37 46.4762 141.817 46.9829 141.083 47.3696C140.363 47.7429 139.51 47.9296 138.523 47.9296ZM148.674 38.6296V44.7296C148.674 45.1429 148.767 45.4429 148.954 45.6296C149.154 45.8029 149.487 45.8896 149.954 45.8896H151.354V47.7896H149.554C148.527 47.7896 147.74 47.5496 147.194 47.0696C146.647 46.5896 146.374 45.8096 146.374 44.7296V38.6296H145.074V36.7696H146.374V34.0296H148.674V36.7696H151.354V38.6296H148.674ZM158.235 47.9696C157.195 47.9696 156.255 47.7362 155.415 47.2696C154.575 46.7896 153.915 46.1229 153.435 45.2696C152.955 44.4029 152.715 43.4029 152.715 42.2696C152.715 41.1496 152.962 40.1562 153.455 39.2896C153.948 38.4229 154.622 37.7562 155.475 37.2896C156.328 36.8229 157.282 36.5896 158.335 36.5896C159.388 36.5896 160.342 36.8229 161.195 37.2896C162.048 37.7562 162.722 38.4229 163.215 39.2896C163.708 40.1562 163.955 41.1496 163.955 42.2696C163.955 43.3896 163.702 44.3829 163.195 45.2496C162.688 46.1162 161.995 46.7896 161.115 47.2696C160.248 47.7362 159.288 47.9696 158.235 47.9696ZM158.235 45.9896C158.822 45.9896 159.368 45.8496 159.875 45.5696C160.395 45.2896 160.815 44.8696 161.135 44.3096C161.455 43.7496 161.615 43.0696 161.615 42.2696C161.615 41.4696 161.462 40.7962 161.155 40.2496C160.848 39.6896 160.442 39.2696 159.935 38.9896C159.428 38.7096 158.882 38.5696 158.295 38.5696C157.708 38.5696 157.162 38.7096 156.655 38.9896C156.162 39.2696 155.768 39.6896 155.475 40.2496C155.182 40.7962 155.035 41.4696 155.035 42.2696C155.035 43.4562 155.335 44.3762 155.935 45.0296C156.548 45.6696 157.315 45.9896 158.235 45.9896ZM168.489 38.3696C168.822 37.8096 169.262 37.3762 169.809 37.0696C170.369 36.7496 171.029 36.5896 171.789 36.5896V38.9496H171.209C170.316 38.9496 169.636 39.1762 169.169 39.6296C168.716 40.0829 168.489 40.8696 168.489 41.9896V47.7896H166.209V36.7696H168.489V38.3696ZM183.985 42.0096C183.985 42.4229 183.958 42.7962 183.905 43.1296H175.485C175.551 44.0096 175.878 44.7162 176.465 45.2496C177.051 45.7829 177.771 46.0496 178.625 46.0496C179.851 46.0496 180.718 45.5362 181.225 44.5096H183.685C183.351 45.5229 182.745 46.3562 181.865 47.0096C180.998 47.6496 179.918 47.9696 178.625 47.9696C177.571 47.9696 176.625 47.7362 175.785 47.2696C174.958 46.7896 174.305 46.1229 173.825 45.2696C173.358 44.4029 173.125 43.4029 173.125 42.2696C173.125 41.1362 173.351 40.1429 173.805 39.2896C174.271 38.4229 174.918 37.7562 175.745 37.2896C176.585 36.8229 177.545 36.5896 178.625 36.5896C179.665 36.5896 180.591 36.8162 181.405 37.2696C182.218 37.7229 182.851 38.3629 183.305 39.1896C183.758 40.0029 183.985 40.9429 183.985 42.0096ZM181.605 41.2896C181.591 40.4496 181.291 39.7762 180.705 39.2696C180.118 38.7629 179.391 38.5096 178.525 38.5096C177.738 38.5096 177.065 38.7629 176.505 39.2696C175.945 39.7629 175.611 40.4362 175.505 41.2896H181.605Z" fill="#2E2E2E"/>
</svg>
